# xmcd CD database file
#
# Track frame offsets:
#	150
#	10970
#	23570
#	34062
#	47875
#	60122
#	73615
#	88060
#	101092
#	113940
#	126712
#	137380
#
# Disc length: 2036 seconds
#
# Revision: 2
# Processed by: cddbd v1.4b41PL1 Copyright (c) Steve Scherf et al.
# Submitted via: Feurio! 1.50.2ﬂ - http://www.feurio.com
#
DISCID=9f07f20c
DTITLE=Ilse Werner - Ilse Werner
DYEAR=1900
DGENRE=
TTITLE0=Es War Einmal Ein Musikus
TTITLE1=Schlieﬂ Deine Augen Und Tr‰ume
TTITLE2=1, 2, 3, 4
TTITLE3=Ich Freue Mich, Daﬂ Wieder Sonntag Ist
TTITLE4=Ich Steh Wie Ein Zinnsoldat
TTITLE5=Mit Etwas Pfiff
TTITLE6=Fips, der Pfeifer
TTITLE7=Jeder Tag
TTITLE8=Der Gedanke An Dich
TTITLE9=Die M‰nner Sind Schon Die Liebe Wert
TTITLE10=Unter Dem Regenschirm Am Abend
TTITLE11=Die Kleine Stadt Will Schlafen Gehn
EXTD=
EXTT0=
EXTT1=
EXTT2=
EXTT3=
EXTT4=
EXTT5=
EXTT6=
EXTT7=
EXTT8=
EXTT9=
EXTT10=
EXTT11=
PLAYORDER=
